# File created by Blade
# Date/Time:  Mon Sep 22 21:09:19 2014
# Frame Rate: 120.000 fps
#------------------------------------------------------
:FULLY-SPECIFIED
:DEGREES
2709
root 7.683477 32.947508 -9.094415 36.066713 -27.357785 -26.943289
Spine -32.881584 -6.803863 19.862536
Head 22.436206 -5.490362 2.974877
LeftShoulder -1.631996 37.585400 32.375269
LeftArm 94.978926 28.302253 -34.105519
LeftForeArm -34.405883 -0.000000 79.248304
LeftHand -21.778741 -0.000000 -3.285753
LeftHandThumb1 -26.253704 0.000000 33.147579
RightShoulder -12.941728 -50.830810 -12.319147
RightArm 63.175924 -14.038812 48.131590
RightForeArm 64.193561 0.000000 86.889811
RightHand 3.002031 -0.000000 22.911207
RightHandThumb1 -24.326973 -0.000000 -32.862282
LeftUpLeg -33.402813 10.441614 15.458821
LeftLeg 27.966646 -0.000000 -0.000000
LeftFoot -18.186940 12.394803 4.171818
LeftToeBase 3.584981 -0.000000 -0.000000
RightUpLeg -165.986487 -5.699599 19.507493
RightLeg 109.564544 -0.000000 -0.000000
RightFoot 40.147484 -14.039673 5.908611
RightToeBase 45.246680 -0.000000 -0.000000
2710
root 7.694231 32.945726 -9.092413 36.013431 -27.445543 -26.755163
Spine -32.912050 -6.725170 19.710191
Head 22.197265 -5.380532 2.976572
LeftShoulder -1.658602 37.669254 32.331705
LeftArm 94.933945 28.305644 -34.096981
LeftForeArm -34.334757 -0.000000 79.324583
LeftHand -21.794492 -0.000000 -3.064134
LeftHandThumb1 -26.253704 0.000000 33.147579
RightShoulder -12.929109 -50.876348 -12.304446
RightArm 63.206793 -14.043281 48.129419
RightForeArm 64.127465 -0.000000 86.890063
RightHand 2.944590 -0.000000 22.909769
RightHandThumb1 -24.326973 -0.000000 -32.862282
LeftUpLeg -33.286196 10.029040 15.348110
LeftLeg 27.701412 -0.000000 -0.000000
LeftFoot -18.030296 13.036549 4.577613
LeftToeBase 3.881262 -0.000000 -0.000000
RightUpLeg -166.001386 -5.515296 19.320453
RightLeg 109.537807 -0.000000 -0.000000
RightFoot 40.204085 -13.993294 6.043438
RightToeBase 45.245860 -0.000000 -0.000000
2711
root 7.708569 32.943175 -9.094812 36.102125 -27.582706 -26.619304
Spine -33.023784 -6.542441 19.585934
Head 21.936471 -5.309509 2.924531
LeftShoulder -1.593157 37.680063 32.396220
LeftArm 94.788015 28.414628 -34.217713
LeftForeArm -34.282036 -0.000000 79.415433
LeftHand -21.979666 -0.000000 -3.078920
LeftHandThumb1 -26.253704 0.000000 33.147579
RightShoulder -12.964579 -50.971487 -12.275687
RightArm 63.318743 -14.042609 48.103251
RightForeArm 64.022784 -0.000000 86.867317
RightHand 3.012289 -0.000000 22.911623
RightHandThumb1 -24.326973 -0.000000 -32.862282
LeftUpLeg -33.277592 9.778890 15.213275
LeftLeg 27.446117 -0.000000 -0.000000
LeftFoot -17.902135 13.508651 4.865976
LeftToeBase 4.059716 -0.000000 -0.000000
RightUpLeg -166.064687 -5.203534 19.165072
RightLeg 109.453891 -0.000000 -0.000000
RightFoot 40.219999 -14.053798 6.096073
RightToeBase 45.275627 -0.000000 -0.000000
2712
root 7.726003 32.941368 -9.096694 36.202465 -27.759815 -26.500799
Spine -33.111452 -6.343225 19.446209
Head 21.646705 -5.210446 2.965522
LeftShoulder -1.665743 37.746629 32.342097
LeftArm 94.780247 28.438776 -34.186222
LeftForeArm -34.230907 -0.000000 79.440635
LeftHand -22.038527 -0.000000 -3.070630
LeftHandThumb1 -26.253704 0.000000 33.147579
RightShoulder -12.946939 -50.995314 -12.267797
RightArm 63.350644 -14.061579 48.090352
RightForeArm 63.941031 -0.000000 86.849167
RightHand 3.064295 -0.000000 22.959095
RightHandThumb1 -24.326973 -0.000000 -32.862282
LeftUpLeg -33.276424 9.586936 15.068027
LeftLeg 27.223182 -0.000000 -0.000000
LeftFoot -17.769044 13.932098 5.122204
LeftToeBase 4.185400 -0.000000 -0.000000
RightUpLeg -166.097108 -4.883180 19.001322
RightLeg 109.349952 -0.000000 -0.000000
RightFoot 40.248711 -14.083237 6.124249
RightToeBase 45.317256 -0.000000 -0.000000
2713
root 7.746712 32.938483 -9.099395 36.350063 -27.948377 -26.376844
Spine -33.237988 -6.093377 19.285467
Head 21.335964 -5.134416 3.026224
LeftShoulder -1.691652 37.782841 32.330545
LeftArm 94.741167 28.496244 -34.196553
LeftForeArm -34.177060 -0.000000 79.466082
LeftHand -22.000241 -0.000000 -3.114503
LeftHandThumb1 -26.253704 0.000000 33.147579
RightShoulder -13.002274 -51.039223 -12.213800
RightArm 63.404022 -14.081395 48.077277
RightForeArm 63.882280 -0.000000 86.816923
RightHand 3.037104 -0.000000 23.035903
RightHandThumb1 -24.326973 -0.000000 -32.862282
LeftUpLeg -33.344549 9.395655 14.914562
LeftLeg 27.045508 -0.000000 -0.000000
LeftFoot -17.676617 14.365923 5.352649
LeftToeBase 4.416276 -0.000000 -0.000000
RightUpLeg -166.154861 -4.534796 18.842871
RightLeg 109.219880 -0.000000 -0.000000
RightFoot 40.240688 -14.067974 5.975976
RightToeBase 45.387325 -0.000000 -0.000000
2714
root 7.767454 32.934806 -9.101486 36.496952 -28.135472 -26.253023
Spine -33.356209 -5.900913 19.162596
Head 20.994118 -5.015817 3.057567
LeftShoulder -1.816398 37.856655 32.240615
LeftArm 94.727548 28.522711 -34.150887
LeftForeArm -34.135908 -0.000000 79.473829
LeftHand -21.976511 -0.000000 -3.179416
LeftHandThumb1 -26.253704 0.000000 33.147579
RightShoulder -12.989890 -51.054667 -12.215451
RightArm 63.452062 -14.110863 48.053549
RightForeArm 63.806944 -0.000000 86.799044
RightHand 2.973599 -0.000000 22.996207
RightHandThumb1 -24.326973 -0.000000 -32.862282
LeftUpLeg -33.433048 9.270079 14.742681
LeftLeg 26.896218 -0.000000 -0.000000
LeftFoot -17.595400 14.667722 5.532616
LeftToeBase 4.569538 -0.000000 -0.000000
RightUpLeg -166.210660 -4.254618 18.664425
RightLeg 109.073016 -0.000000 -0.000000
RightFoot 40.257177 -14.141576 6.092213
RightToeBase 45.370047 -0.000000 -0.000000
2715
root 7.789190 32.930618 -9.102585 36.618707 -28.320182 -26.140374
Spine -33.442982 -5.725101 19.053783
Head 20.642146 -4.888444 3.087826
LeftShoulder -1.915332 37.973903 32.153633
LeftArm 94.715829 28.510815 -34.117469
LeftForeArm -34.064724 -0.000000 79.494057
LeftHand -21.947978 -0.000000 -3.134984
LeftHandThumb1 -26.253704 0.000000 33.147579
RightShoulder -12.965833 -51.084968 -12.218966
RightArm 63.508862 -14.120193 48.017652
RightForeArm 63.790995 0.000000 86.770925
RightHand 2.907416 0.000000 23.018585
RightHandThumb1 -24.326973 -0.000000 -32.862282
LeftUpLeg -33.513337 9.164526 14.580705
LeftLeg 26.782430 -0.000000 -0.000000
LeftFoot -17.503405 14.894571 5.685268
LeftToeBase 4.600081 -0.000000 -0.000000
RightUpLeg -166.230462 -3.984662 18.510582
RightLeg 108.927803 -0.000000 -0.000000
RightFoot 40.255478 -14.147357 6.111203
RightToeBase 45.272282 -0.000000 -0.000000
2716
root 7.811509 32.925713 -9.103302 36.736062 -28.541026 -26.030047
Spine -33.508828 -5.541835 18.923085
Head 20.283855 -4.736635 3.194647
LeftShoulder -2.024584 38.066619 32.061747
LeftArm 94.702699 28.518149 -34.082951
LeftForeArm -34.052357 -0.000000 79.490542
LeftHand -21.925545 0.000000 -3.257898
LeftHandThumb1 -26.253704 0.000000 33.147579
RightShoulder -12.927189 -51.064809 -12.231705
RightArm 63.555594 -14.159522 47.937962
RightForeArm 63.717347 -0.000000 86.715701
RightHand 2.977820 -0.000000 23.104733
RightHandThumb1 -24.326973 -0.000000 -32.862282
LeftUpLeg -33.607159 9.130657 14.384258
LeftLeg 26.716377 -0.000000 -0.000000
LeftFoot -17.414415 15.036144 5.828490
LeftToeBase 4.569590 -0.000000 -0.000000
RightUpLeg -166.214285 -3.704548 18.324135
RightLeg 108.760075 -0.000000 -0.000000
RightFoot 40.260828 -14.171441 6.102519
RightToeBase 45.099001 -0.000000 -0.000000
2717
root 7.832556 32.918446 -9.103983 36.827966 -28.752468 -25.921866
Spine -33.545841 -5.387890 18.799165
Head 19.909853 -4.582584 3.302669
LeftShoulder -2.112549 38.130147 31.996870
LeftArm 94.673629 28.551023 -34.058258
LeftForeArm -34.036748 -0.000000 79.478707
LeftHand -21.907084 -0.000000 -3.321086
LeftHandThumb1 -26.253704 0.000000 33.147579
RightShoulder -12.896453 -51.027740 -12.252343
RightArm 63.581188 -14.215253 47.878729
RightForeArm 63.796596 0.000000 86.651316
RightHand 3.507963 -0.000000 22.772037
RightHandThumb1 -24.326973 -0.000000 -32.862282
LeftUpLeg -33.695307 9.081678 14.202797
LeftLeg 26.680919 -0.000000 -0.000000
LeftFoot -17.302114 15.179636 5.974629
LeftToeBase 4.419579 -0.000000 -0.000000
RightUpLeg -166.179151 -3.456264 18.145742
RightLeg 108.587100 -0.000000 -0.000000
RightFoot 40.302669 -14.105175 6.019728
RightToeBase 44.735812 -0.000000 -0.000000
2718
root 7.852081 32.910973 -9.101412 36.882997 -28.935967 -25.841119
Spine -33.543717 -5.283517 18.733753
Head 19.552741 -4.350322 3.390900
LeftShoulder -2.249116 38.275003 31.852555
LeftArm 94.700555 28.500528 -33.967898
LeftForeArm -34.061986 -0.000000 79.438690
LeftHand -21.829891 0.000000 -3.421992
LeftHandThumb1 -26.253704 0.000000 33.147579
RightShoulder -12.810517 -50.985960 -12.320712
RightArm 63.640238 -14.269336 47.813121
RightForeArm 63.801775 -0.000000 86.569425
RightHand 3.539609 0.000000 22.673945
RightHandThumb1 -24.326973 -0.000000 -32.862282
LeftUpLeg -33.740746 8.962819 14.081778
LeftLeg 26.658419 -0.000000 -0.000000
LeftFoot -17.132172 15.365359 6.197956
LeftToeBase 4.278850 -0.000000 -0.000000
RightUpLeg -166.090302 -3.237414 18.011926
RightLeg 108.430988 -0.000000 -0.000000
RightFoot 40.239135 -14.198297 6.051971
RightToeBase 45.259640 -0.000000 -0.000000
